# xmcd
#
# Track frame offsets:
#	150
#	18375
#	38890
#	59867
#	76464
#	101776
#	125467
#	146738
#	166266
#	193063
#
# Disc length: 2814 seconds
#
# Revision: 0
# Processed by: cddbd v1.5PL3 Copyright (c) Steve Scherf et al.
# Submitted via: audiograbber 1.82.01
#
DISCID=900afc0a
DTITLE=Nabil Shuail - Shuail 2004
DYEAR=1900
DGENRE=Ethnic
TTITLE0=Lil Heen ahibha
TTITLE1=Rouwayah
TTITLE2=Khalas
TTITLE3=Mawlay
TTITLE4=Ya Sa3douhoum
TTITLE5=Rayyihni
TTITLE6=Kheeyanah
TTITLE7=Ma Ajbourek
TTITLE8=Min Gal
TTITLE9=Allah Yihideek
EXTD=
EXTT0=
EXTT1=
EXTT2=
EXTT3=
EXTT4=
EXTT5=
EXTT6=
EXTT7=
EXTT8=
EXTT9=
PLAYORDER=
